<?xml version='1.0' encoding='utf-8'?>
<svg xmlns="http://www.w3.org/2000/svg" width="1024" height="1024" version="1.1" viewBox="0 0 270.93 270.93"> <g transform="translate(.51663 31.546)"> <g fill="none" stroke="#1a171b" stroke-width="5"> <path d="m111.49 187.27 4.1248 27.068c2.9302 8.6813 12.68 8.0046 19.825 8.2966 7.0117-0.16698 17.137 0.24134 19.879-8.2966l4.1248-27.068zm13.164 36.048c0 3.0194 4.8714 6.7453 10.813 6.7453 5.9419 0 10.704-3.7259 10.704-6.7453 0-0.72172-21.518-0.71757-21.518 0z"/> <path d="m108.58 199.52 53.774-5.1928" stroke-linecap="round" stroke-linejoin="round"/> <path d="m111.23 211.76 48.482-5.1928" stroke-linecap="round" stroke-linejoin="round"/> </g> <g transform="translate(-.51663 -31.546)" fill="none" stroke="#1a171b" stroke-linecap="round" stroke-linejoin="round"> <path transform="translate(.51663 31.546)" d="m216.26 82.25h23.849" stroke-width="3.6122"/> <path transform="translate(.51663 31.546)" d="m192.45 139.75 16.864 16.864" stroke-width="3.6122"/> <path transform="translate(.51663 31.546)" d="m77.452 139.75-16.864 16.864" stroke-width="3.6122"/> <path transform="translate(.51663 31.546)" d="m53.636 82.25h-23.849" stroke-width="3.6122"/> <path transform="translate(.51663 31.546)" d="m77.452 24.752-16.864-16.864" stroke-width="3.6122"/> <path transform="translate(.51663 31.546)" d="m134.95 0.93556v-23.849" stroke-width="3.6122"/> <path transform="translate(.51663 31.546)" d="m192.45 24.752 16.864-16.864" stroke-width="3.6122"/> <path transform="translate(.51663 31.546)" d="m146.74 103.03a11.273 17.887 0 0 1-11.273 17.887 11.273 17.887 0 0 1-11.273-17.887 11.273 17.887 0 0 1 11.273-17.887 11.273 17.887 0 0 1 11.273 17.887z" stroke-width="5"/> <path transform="translate(.51663 31.546)" d="m130.86 103.03a11.273 17.887 0 0 1-11.273 17.887 11.273 17.887 0 0 1-11.273-17.887 11.273 17.887 0 0 1 11.273-17.887 11.273 17.887 0 0 1 11.273 17.887z" stroke-width="5"/> <path transform="translate(.51663 31.546)" d="m162.61 103.03a11.273 17.887 0 0 1-11.273 17.887 11.273 17.887 0 0 1-11.273-17.887 11.273 17.887 0 0 1 11.273-17.887 11.273 17.887 0 0 1 11.273 17.887z" stroke-width="5"/> <path transform="translate(.51663 31.546)" d="m110.32 113.21c0.55395 0.64062 15.135 37.548 13.437 74.059" stroke-width="5"/> <path transform="translate(.51663 31.546)" d="m160.54 113.21c-0.55395 0.64062-15.135 37.548-13.437 74.059" stroke-width="5"/> <path transform="translate(.51663 31.546)" d="m87.075 97.629a50.66 50.66 0 0 1 20.752-57.445" stroke-width="5.1"/> </g> <path transform="matrix(.8098 0 0 .8098 25.766 3.1846)" d="m135.47 19.243c-43.731-2.6e-5 -79.182 35.451-79.182 79.182 0.04999 17.317 5.7502 33.789 15.765 47.186 11.297 15.114 25.881 37.723 25.881 56.742v12.367a12.622 12.622 45 0 0 12.622 12.622h49.829a12.622 12.622 135 0 0 12.622-12.622v-12.367c0-19.019 14.583-41.628 25.881-56.742 10.015-13.398 15.715-29.869 15.765-47.186 2e-5 -43.731-35.451-79.182-79.182-79.182z" fill="none" stroke="#1a171b" stroke-width="6.1744"/> </g> </svg>